<svg xmlns="http://www.w3.org/2000/svg" viewBox="0 0 800 520">
  <defs>
    <linearGradient id="bg" x1="0" x2="1" y1="0" y2="1"><stop offset="0" stop-color="#9b5cff"/><stop offset="1" stop-color="#9b5cff"/></linearGradient>
    <filter id="glow" x="-30%" y="-30%" width="160%" height="160%"><feGaussianBlur stdDeviation="8" result="b"/><feMerge><feMergeNode in="b"/><feMergeNode in="SourceGraphic"/></feMerge></filter>
  </defs>
  <rect width="800" height="520" rx="38" fill="#06091d"/>
  <rect x="18" y="18" width="764" height="484" rx="32" fill="url(#bg)" opacity=".82"/>
  <rect x="18" y="18" width="764" height="484" rx="32" fill="rgba(6,9,29,.28)"/>
  <circle cx="718" cy="340" r="2" fill="rgba(255,255,255,.55)"/><circle cx="207" cy="308" r="2" fill="rgba(255,255,255,.55)"/><circle cx="361" cy="312" r="2" fill="rgba(255,255,255,.55)"/><circle cx="227" cy="273" r="4" fill="rgba(255,255,255,.55)"/><circle cx="558" cy="234" r="3" fill="rgba(255,255,255,.55)"/><circle cx="402" cy="342" r="3" fill="rgba(255,255,255,.55)"/><circle cx="486" cy="191" r="4" fill="rgba(255,255,255,.55)"/><circle cx="65" cy="138" r="3" fill="rgba(255,255,255,.55)"/><circle cx="360" cy="129" r="4" fill="rgba(255,255,255,.55)"/><circle cx="191" cy="75" r="2" fill="rgba(255,255,255,.55)"/><circle cx="522" cy="350" r="2" fill="rgba(255,255,255,.55)"/><circle cx="272" cy="284" r="3" fill="rgba(255,255,255,.55)"/><circle cx="238" cy="90" r="2" fill="rgba(255,255,255,.55)"/><circle cx="758" cy="415" r="2" fill="rgba(255,255,255,.55)"/><circle cx="386" cy="228" r="5" fill="rgba(255,255,255,.55)"/><circle cx="484" cy="122" r="5" fill="rgba(255,255,255,.55)"/><circle cx="396" cy="348" r="5" fill="rgba(255,255,255,.55)"/><circle cx="449" cy="298" r="5" fill="rgba(255,255,255,.55)"/><circle cx="153" cy="407" r="2" fill="rgba(255,255,255,.55)"/><circle cx="718" cy="189" r="3" fill="rgba(255,255,255,.55)"/><circle cx="133" cy="244" r="3" fill="rgba(255,255,255,.55)"/><circle cx="210" cy="43" r="4" fill="rgba(255,255,255,.55)"/>
  <ellipse cx="400" cy="450" rx="250" ry="34" fill="rgba(0,0,0,.32)"/>
  <path d="M455 220 C455 190 492 184 512 212 C532 184 569 190 569 220 C569 258 512 292 512 292 C512 292 455 258 455 220Z" fill="rgba(255,94,219,.55)"/>
  <path d="M372 354 C430 390 494 390 552 354" fill="none" stroke="rgba(255,255,255,.55)" stroke-width="16" stroke-linecap="round"/>
  <g filter="url(#glow)">
    <g transform="translate(245 250)">
      <ellipse cx="0" cy="186" rx="88" ry="24" fill="rgba(0,0,0,.25)"/>
      <path d="M-88 200 C-82 94 82 94 88 200 Z" fill="#36e8ff"/>
      <circle cx="0" cy="34" r="70" fill="#d8a071"/>
      <path d="M-68 24 C-42 -62 55 -58 74 32 C28 10 -20 15 -68 24Z" fill="#d8a348"/>
      <circle cx="-24" cy="34" r="7" fill="#151827"/><circle cx="24" cy="34" r="7" fill="#151827"/>
      <path d="M-22 68 C-5 82 12 82 28 68" stroke="#151827" stroke-width="7" stroke-linecap="round" fill="none"/>
      <path d="M-86 120 C-148 152 -150 232 -96 252" stroke="#d8a071" stroke-width="28" stroke-linecap="round" fill="none"/>
    </g>
    <g transform="translate(555 250)">
      <ellipse cx="0" cy="186" rx="88" ry="24" fill="rgba(0,0,0,.25)"/>
      <path d="M-88 200 C-82 94 82 94 88 200 Z" fill="#ff7a5c"/>
      <circle cx="0" cy="34" r="70" fill="#ffd5b8"/>
      <path d="M-74 34 C-62 -54 58 -62 76 34 C36 8 -22 8 -74 34Z" fill="#20120d"/>
      <circle cx="-24" cy="34" r="7" fill="#151827"/><circle cx="24" cy="34" r="7" fill="#151827"/>
      <path d="M-28 68 C-9 83 12 83 30 68" stroke="#151827" stroke-width="7" stroke-linecap="round" fill="none"/>
      <path d="M86 120 C148 152 150 232 96 252" stroke="#ffd5b8" stroke-width="28" stroke-linecap="round" fill="none"/>
    </g>
  </g>
  <rect x="28" y="28" width="744" height="464" rx="28" fill="none" stroke="rgba(255,255,255,.44)" stroke-width="4"/>
</svg>