<svg xmlns="http://www.w3.org/2000/svg" viewBox="0 0 800 520">
  <defs>
    <linearGradient id="bg" x1="0" x2="1" y1="0" y2="1"><stop offset="0" stop-color="#5cffb1"/><stop offset="1" stop-color="#ff7a5c"/></linearGradient>
    <filter id="glow" x="-30%" y="-30%" width="160%" height="160%"><feGaussianBlur stdDeviation="8" result="b"/><feMerge><feMergeNode in="b"/><feMergeNode in="SourceGraphic"/></feMerge></filter>
  </defs>
  <rect width="800" height="520" rx="38" fill="#06091d"/>
  <rect x="18" y="18" width="764" height="484" rx="32" fill="url(#bg)" opacity=".82"/>
  <rect x="18" y="18" width="764" height="484" rx="32" fill="rgba(6,9,29,.28)"/>
  <circle cx="337" cy="137" r="4" fill="rgba(255,255,255,.55)"/><circle cx="689" cy="424" r="2" fill="rgba(255,255,255,.55)"/><circle cx="529" cy="245" r="3" fill="rgba(255,255,255,.55)"/><circle cx="332" cy="262" r="3" fill="rgba(255,255,255,.55)"/><circle cx="42" cy="267" r="3" fill="rgba(255,255,255,.55)"/><circle cx="448" cy="117" r="3" fill="rgba(255,255,255,.55)"/><circle cx="125" cy="38" r="5" fill="rgba(255,255,255,.55)"/><circle cx="413" cy="35" r="2" fill="rgba(255,255,255,.55)"/><circle cx="250" cy="139" r="4" fill="rgba(255,255,255,.55)"/><circle cx="47" cy="140" r="5" fill="rgba(255,255,255,.55)"/><circle cx="757" cy="355" r="5" fill="rgba(255,255,255,.55)"/><circle cx="657" cy="308" r="2" fill="rgba(255,255,255,.55)"/><circle cx="572" cy="251" r="3" fill="rgba(255,255,255,.55)"/><circle cx="172" cy="352" r="3" fill="rgba(255,255,255,.55)"/><circle cx="354" cy="46" r="3" fill="rgba(255,255,255,.55)"/><circle cx="277" cy="291" r="3" fill="rgba(255,255,255,.55)"/><circle cx="91" cy="297" r="3" fill="rgba(255,255,255,.55)"/><circle cx="550" cy="311" r="2" fill="rgba(255,255,255,.55)"/><circle cx="568" cy="408" r="5" fill="rgba(255,255,255,.55)"/><circle cx="133" cy="145" r="3" fill="rgba(255,255,255,.55)"/><circle cx="586" cy="162" r="4" fill="rgba(255,255,255,.55)"/><circle cx="278" cy="133" r="4" fill="rgba(255,255,255,.55)"/>
  <ellipse cx="400" cy="450" rx="250" ry="34" fill="rgba(0,0,0,.32)"/>
  
  
  <g filter="url(#glow)">
    <g transform="translate(245 250)">
      <ellipse cx="0" cy="186" rx="88" ry="24" fill="rgba(0,0,0,.25)"/>
      <path d="M-88 200 C-82 94 82 94 88 200 Z" fill="#ff7a5c"/>
      <circle cx="0" cy="34" r="70" fill="#b8754f"/>
      <path d="M-68 24 C-42 -62 55 -58 74 32 C28 10 -20 15 -68 24Z" fill="#8f4f2a"/>
      <circle cx="-24" cy="34" r="7" fill="#151827"/><circle cx="24" cy="34" r="7" fill="#151827"/>
      <path d="M-22 68 C-5 82 12 82 28 68" stroke="#151827" stroke-width="7" stroke-linecap="round" fill="none"/>
      <path d="M-86 120 C-148 152 -150 232 -96 252" stroke="#b8754f" stroke-width="28" stroke-linecap="round" fill="none"/>
    </g>
    <g transform="translate(555 250)">
      <ellipse cx="0" cy="186" rx="88" ry="24" fill="rgba(0,0,0,.25)"/>
      <path d="M-88 200 C-82 94 82 94 88 200 Z" fill="#ff7a5c"/>
      <circle cx="0" cy="34" r="70" fill="#ffd5b8"/>
      <path d="M-74 34 C-62 -54 58 -62 76 34 C36 8 -22 8 -74 34Z" fill="#d8a348"/>
      <circle cx="-24" cy="34" r="7" fill="#151827"/><circle cx="24" cy="34" r="7" fill="#151827"/>
      <path d="M-28 68 C-9 83 12 83 30 68" stroke="#151827" stroke-width="7" stroke-linecap="round" fill="none"/>
      <path d="M86 120 C148 152 150 232 96 252" stroke="#ffd5b8" stroke-width="28" stroke-linecap="round" fill="none"/>
    </g>
  </g>
  <rect x="28" y="28" width="744" height="464" rx="28" fill="none" stroke="rgba(255,255,255,.44)" stroke-width="4"/>
</svg>