<svg xmlns="http://www.w3.org/2000/svg" viewBox="0 0 800 520">
  <defs>
    <linearGradient id="bg" x1="0" x2="1" y1="0" y2="1"><stop offset="0" stop-color="#5cffb1"/><stop offset="1" stop-color="#ff5edb"/></linearGradient>
    <filter id="glow" x="-30%" y="-30%" width="160%" height="160%"><feGaussianBlur stdDeviation="8" result="b"/><feMerge><feMergeNode in="b"/><feMergeNode in="SourceGraphic"/></feMerge></filter>
  </defs>
  <rect width="800" height="520" rx="38" fill="#06091d"/>
  <rect x="18" y="18" width="764" height="484" rx="32" fill="url(#bg)" opacity=".82"/>
  <rect x="18" y="18" width="764" height="484" rx="32" fill="rgba(6,9,29,.28)"/>
  <circle cx="261" cy="179" r="2" fill="rgba(255,255,255,.55)"/><circle cx="590" cy="110" r="4" fill="rgba(255,255,255,.55)"/><circle cx="227" cy="288" r="4" fill="rgba(255,255,255,.55)"/><circle cx="723" cy="285" r="3" fill="rgba(255,255,255,.55)"/><circle cx="610" cy="144" r="4" fill="rgba(255,255,255,.55)"/><circle cx="188" cy="337" r="4" fill="rgba(255,255,255,.55)"/><circle cx="169" cy="328" r="4" fill="rgba(255,255,255,.55)"/><circle cx="579" cy="131" r="5" fill="rgba(255,255,255,.55)"/><circle cx="384" cy="185" r="4" fill="rgba(255,255,255,.55)"/><circle cx="203" cy="159" r="2" fill="rgba(255,255,255,.55)"/><circle cx="294" cy="207" r="3" fill="rgba(255,255,255,.55)"/><circle cx="527" cy="187" r="2" fill="rgba(255,255,255,.55)"/><circle cx="532" cy="347" r="5" fill="rgba(255,255,255,.55)"/><circle cx="278" cy="135" r="3" fill="rgba(255,255,255,.55)"/><circle cx="649" cy="285" r="4" fill="rgba(255,255,255,.55)"/><circle cx="563" cy="71" r="2" fill="rgba(255,255,255,.55)"/><circle cx="690" cy="377" r="5" fill="rgba(255,255,255,.55)"/><circle cx="241" cy="347" r="4" fill="rgba(255,255,255,.55)"/><circle cx="717" cy="52" r="5" fill="rgba(255,255,255,.55)"/><circle cx="199" cy="98" r="3" fill="rgba(255,255,255,.55)"/><circle cx="201" cy="75" r="3" fill="rgba(255,255,255,.55)"/><circle cx="363" cy="147" r="3" fill="rgba(255,255,255,.55)"/>
  <ellipse cx="400" cy="450" rx="250" ry="34" fill="rgba(0,0,0,.32)"/>
  
  <path d="M372 354 C430 390 494 390 552 354" fill="none" stroke="rgba(255,255,255,.55)" stroke-width="16" stroke-linecap="round"/>
  <g filter="url(#glow)">
    <g transform="translate(245 250)">
      <ellipse cx="0" cy="186" rx="88" ry="24" fill="rgba(0,0,0,.25)"/>
      <path d="M-88 200 C-82 94 82 94 88 200 Z" fill="#9b5cff"/>
      <circle cx="0" cy="34" r="70" fill="#f3c7a1"/>
      <path d="M-68 24 C-42 -62 55 -58 74 32 C28 10 -20 15 -68 24Z" fill="#3b2e2a"/>
      <circle cx="-24" cy="34" r="7" fill="#151827"/><circle cx="24" cy="34" r="7" fill="#151827"/>
      <path d="M-22 68 C-5 82 12 82 28 68" stroke="#151827" stroke-width="7" stroke-linecap="round" fill="none"/>
      <path d="M-86 120 C-148 152 -150 232 -96 252" stroke="#f3c7a1" stroke-width="28" stroke-linecap="round" fill="none"/>
    </g>
    <g transform="translate(555 250)">
      <ellipse cx="0" cy="186" rx="88" ry="24" fill="rgba(0,0,0,.25)"/>
      <path d="M-88 200 C-82 94 82 94 88 200 Z" fill="#ff7a5c"/>
      <circle cx="0" cy="34" r="70" fill="#8f5d42"/>
      <path d="M-74 34 C-62 -54 58 -62 76 34 C36 8 -22 8 -74 34Z" fill="#20120d"/>
      <circle cx="-24" cy="34" r="7" fill="#151827"/><circle cx="24" cy="34" r="7" fill="#151827"/>
      <path d="M-28 68 C-9 83 12 83 30 68" stroke="#151827" stroke-width="7" stroke-linecap="round" fill="none"/>
      <path d="M86 120 C148 152 150 232 96 252" stroke="#8f5d42" stroke-width="28" stroke-linecap="round" fill="none"/>
    </g>
  </g>
  <rect x="28" y="28" width="744" height="464" rx="28" fill="none" stroke="rgba(255,255,255,.44)" stroke-width="4"/>
</svg>