<svg xmlns="http://www.w3.org/2000/svg" viewBox="0 0 800 520">
  <defs>
    <linearGradient id="bg" x1="0" x2="1" y1="0" y2="1"><stop offset="0" stop-color="#72ffda"/><stop offset="1" stop-color="#36e8ff"/></linearGradient>
    <filter id="glow" x="-30%" y="-30%" width="160%" height="160%"><feGaussianBlur stdDeviation="8" result="b"/><feMerge><feMergeNode in="b"/><feMergeNode in="SourceGraphic"/></feMerge></filter>
  </defs>
  <rect width="800" height="520" rx="38" fill="#06091d"/>
  <rect x="18" y="18" width="764" height="484" rx="32" fill="url(#bg)" opacity=".82"/>
  <rect x="18" y="18" width="764" height="484" rx="32" fill="rgba(6,9,29,.28)"/>
  <circle cx="711" cy="429" r="5" fill="rgba(255,255,255,.55)"/><circle cx="144" cy="174" r="4" fill="rgba(255,255,255,.55)"/><circle cx="49" cy="314" r="5" fill="rgba(255,255,255,.55)"/><circle cx="143" cy="342" r="4" fill="rgba(255,255,255,.55)"/><circle cx="490" cy="174" r="2" fill="rgba(255,255,255,.55)"/><circle cx="244" cy="271" r="4" fill="rgba(255,255,255,.55)"/><circle cx="595" cy="121" r="3" fill="rgba(255,255,255,.55)"/><circle cx="559" cy="285" r="3" fill="rgba(255,255,255,.55)"/><circle cx="618" cy="154" r="2" fill="rgba(255,255,255,.55)"/><circle cx="388" cy="300" r="4" fill="rgba(255,255,255,.55)"/><circle cx="375" cy="301" r="3" fill="rgba(255,255,255,.55)"/><circle cx="367" cy="183" r="4" fill="rgba(255,255,255,.55)"/><circle cx="643" cy="159" r="4" fill="rgba(255,255,255,.55)"/><circle cx="433" cy="282" r="4" fill="rgba(255,255,255,.55)"/><circle cx="105" cy="154" r="4" fill="rgba(255,255,255,.55)"/><circle cx="123" cy="298" r="2" fill="rgba(255,255,255,.55)"/><circle cx="352" cy="109" r="2" fill="rgba(255,255,255,.55)"/><circle cx="128" cy="81" r="4" fill="rgba(255,255,255,.55)"/><circle cx="56" cy="344" r="3" fill="rgba(255,255,255,.55)"/><circle cx="359" cy="101" r="3" fill="rgba(255,255,255,.55)"/><circle cx="391" cy="93" r="4" fill="rgba(255,255,255,.55)"/><circle cx="144" cy="423" r="4" fill="rgba(255,255,255,.55)"/>
  <ellipse cx="400" cy="450" rx="250" ry="34" fill="rgba(0,0,0,.32)"/>
  <path d="M455 220 C455 190 492 184 512 212 C532 184 569 190 569 220 C569 258 512 292 512 292 C512 292 455 258 455 220Z" fill="rgba(255,94,219,.55)"/>
  <path d="M372 354 C430 390 494 390 552 354" fill="none" stroke="rgba(255,255,255,.55)" stroke-width="16" stroke-linecap="round"/>
  <g filter="url(#glow)">
    <g transform="translate(245 250)">
      <ellipse cx="0" cy="186" rx="88" ry="24" fill="rgba(0,0,0,.25)"/>
      <path d="M-88 200 C-82 94 82 94 88 200 Z" fill="#72ffda"/>
      <circle cx="0" cy="34" r="70" fill="#f3c7a1"/>
      <path d="M-68 24 C-42 -62 55 -58 74 32 C28 10 -20 15 -68 24Z" fill="#8f4f2a"/>
      <circle cx="-24" cy="34" r="7" fill="#151827"/><circle cx="24" cy="34" r="7" fill="#151827"/>
      <path d="M-22 68 C-5 82 12 82 28 68" stroke="#151827" stroke-width="7" stroke-linecap="round" fill="none"/>
      <path d="M-86 120 C-148 152 -150 232 -96 252" stroke="#f3c7a1" stroke-width="28" stroke-linecap="round" fill="none"/>
    </g>
    <g transform="translate(555 250)">
      <ellipse cx="0" cy="186" rx="88" ry="24" fill="rgba(0,0,0,.25)"/>
      <path d="M-88 200 C-82 94 82 94 88 200 Z" fill="#ff7a5c"/>
      <circle cx="0" cy="34" r="70" fill="#d8a071"/>
      <path d="M-74 34 C-62 -54 58 -62 76 34 C36 8 -22 8 -74 34Z" fill="#d8a348"/>
      <circle cx="-24" cy="34" r="7" fill="#151827"/><circle cx="24" cy="34" r="7" fill="#151827"/>
      <path d="M-28 68 C-9 83 12 83 30 68" stroke="#151827" stroke-width="7" stroke-linecap="round" fill="none"/>
      <path d="M86 120 C148 152 150 232 96 252" stroke="#d8a071" stroke-width="28" stroke-linecap="round" fill="none"/>
    </g>
  </g>
  <rect x="28" y="28" width="744" height="464" rx="28" fill="none" stroke="rgba(255,255,255,.44)" stroke-width="4"/>
</svg>