<svg xmlns="http://www.w3.org/2000/svg" viewBox="0 0 800 520">
  <defs>
    <linearGradient id="bg" x1="0" x2="1" y1="0" y2="1"><stop offset="0" stop-color="#9b5cff"/><stop offset="1" stop-color="#5cffb1"/></linearGradient>
    <filter id="glow" x="-30%" y="-30%" width="160%" height="160%"><feGaussianBlur stdDeviation="8" result="b"/><feMerge><feMergeNode in="b"/><feMergeNode in="SourceGraphic"/></feMerge></filter>
  </defs>
  <rect width="800" height="520" rx="38" fill="#06091d"/>
  <rect x="18" y="18" width="764" height="484" rx="32" fill="url(#bg)" opacity=".82"/>
  <rect x="18" y="18" width="764" height="484" rx="32" fill="rgba(6,9,29,.28)"/>
  <circle cx="294" cy="219" r="4" fill="rgba(255,255,255,.55)"/><circle cx="90" cy="378" r="5" fill="rgba(255,255,255,.55)"/><circle cx="47" cy="413" r="2" fill="rgba(255,255,255,.55)"/><circle cx="283" cy="120" r="3" fill="rgba(255,255,255,.55)"/><circle cx="654" cy="239" r="4" fill="rgba(255,255,255,.55)"/><circle cx="98" cy="223" r="3" fill="rgba(255,255,255,.55)"/><circle cx="58" cy="289" r="2" fill="rgba(255,255,255,.55)"/><circle cx="561" cy="404" r="3" fill="rgba(255,255,255,.55)"/><circle cx="550" cy="213" r="3" fill="rgba(255,255,255,.55)"/><circle cx="413" cy="190" r="4" fill="rgba(255,255,255,.55)"/><circle cx="404" cy="124" r="2" fill="rgba(255,255,255,.55)"/><circle cx="703" cy="36" r="2" fill="rgba(255,255,255,.55)"/><circle cx="453" cy="357" r="5" fill="rgba(255,255,255,.55)"/><circle cx="532" cy="140" r="4" fill="rgba(255,255,255,.55)"/><circle cx="89" cy="69" r="2" fill="rgba(255,255,255,.55)"/><circle cx="615" cy="158" r="2" fill="rgba(255,255,255,.55)"/><circle cx="222" cy="125" r="4" fill="rgba(255,255,255,.55)"/><circle cx="682" cy="130" r="3" fill="rgba(255,255,255,.55)"/><circle cx="519" cy="379" r="4" fill="rgba(255,255,255,.55)"/><circle cx="255" cy="102" r="4" fill="rgba(255,255,255,.55)"/><circle cx="328" cy="164" r="2" fill="rgba(255,255,255,.55)"/><circle cx="261" cy="370" r="2" fill="rgba(255,255,255,.55)"/>
  <ellipse cx="400" cy="450" rx="250" ry="34" fill="rgba(0,0,0,.32)"/>
  
  
  <g filter="url(#glow)">
    <g transform="translate(245 250)">
      <ellipse cx="0" cy="186" rx="88" ry="24" fill="rgba(0,0,0,.25)"/>
      <path d="M-88 200 C-82 94 82 94 88 200 Z" fill="#5cffb1"/>
      <circle cx="0" cy="34" r="70" fill="#d8a071"/>
      <path d="M-68 24 C-42 -62 55 -58 74 32 C28 10 -20 15 -68 24Z" fill="#10131c"/>
      <circle cx="-24" cy="34" r="7" fill="#151827"/><circle cx="24" cy="34" r="7" fill="#151827"/>
      <path d="M-22 68 C-5 82 12 82 28 68" stroke="#151827" stroke-width="7" stroke-linecap="round" fill="none"/>
      <path d="M-86 120 C-148 152 -150 232 -96 252" stroke="#d8a071" stroke-width="28" stroke-linecap="round" fill="none"/>
    </g>
    <g transform="translate(555 250)">
      <ellipse cx="0" cy="186" rx="88" ry="24" fill="rgba(0,0,0,.25)"/>
      <path d="M-88 200 C-82 94 82 94 88 200 Z" fill="#5cffb1"/>
      <circle cx="0" cy="34" r="70" fill="#ffd5b8"/>
      <path d="M-74 34 C-62 -54 58 -62 76 34 C36 8 -22 8 -74 34Z" fill="#5a3217"/>
      <circle cx="-24" cy="34" r="7" fill="#151827"/><circle cx="24" cy="34" r="7" fill="#151827"/>
      <path d="M-28 68 C-9 83 12 83 30 68" stroke="#151827" stroke-width="7" stroke-linecap="round" fill="none"/>
      <path d="M86 120 C148 152 150 232 96 252" stroke="#ffd5b8" stroke-width="28" stroke-linecap="round" fill="none"/>
    </g>
  </g>
  <rect x="28" y="28" width="744" height="464" rx="28" fill="none" stroke="rgba(255,255,255,.44)" stroke-width="4"/>
</svg>