<svg xmlns="http://www.w3.org/2000/svg" viewBox="0 0 800 520">
  <defs>
    <linearGradient id="bg" x1="0" x2="1" y1="0" y2="1"><stop offset="0" stop-color="#72ffda"/><stop offset="1" stop-color="#72ffda"/></linearGradient>
    <filter id="glow" x="-30%" y="-30%" width="160%" height="160%"><feGaussianBlur stdDeviation="8" result="b"/><feMerge><feMergeNode in="b"/><feMergeNode in="SourceGraphic"/></feMerge></filter>
  </defs>
  <rect width="800" height="520" rx="38" fill="#06091d"/>
  <rect x="18" y="18" width="764" height="484" rx="32" fill="url(#bg)" opacity=".82"/>
  <rect x="18" y="18" width="764" height="484" rx="32" fill="rgba(6,9,29,.28)"/>
  <circle cx="174" cy="324" r="5" fill="rgba(255,255,255,.55)"/><circle cx="535" cy="238" r="4" fill="rgba(255,255,255,.55)"/><circle cx="716" cy="275" r="5" fill="rgba(255,255,255,.55)"/><circle cx="526" cy="241" r="3" fill="rgba(255,255,255,.55)"/><circle cx="704" cy="93" r="4" fill="rgba(255,255,255,.55)"/><circle cx="58" cy="419" r="5" fill="rgba(255,255,255,.55)"/><circle cx="439" cy="226" r="5" fill="rgba(255,255,255,.55)"/><circle cx="237" cy="44" r="3" fill="rgba(255,255,255,.55)"/><circle cx="454" cy="185" r="4" fill="rgba(255,255,255,.55)"/><circle cx="618" cy="206" r="3" fill="rgba(255,255,255,.55)"/><circle cx="756" cy="221" r="4" fill="rgba(255,255,255,.55)"/><circle cx="333" cy="239" r="4" fill="rgba(255,255,255,.55)"/><circle cx="482" cy="88" r="3" fill="rgba(255,255,255,.55)"/><circle cx="544" cy="376" r="4" fill="rgba(255,255,255,.55)"/><circle cx="261" cy="429" r="4" fill="rgba(255,255,255,.55)"/><circle cx="678" cy="334" r="5" fill="rgba(255,255,255,.55)"/><circle cx="746" cy="329" r="2" fill="rgba(255,255,255,.55)"/><circle cx="694" cy="361" r="5" fill="rgba(255,255,255,.55)"/><circle cx="62" cy="411" r="4" fill="rgba(255,255,255,.55)"/><circle cx="199" cy="348" r="4" fill="rgba(255,255,255,.55)"/><circle cx="626" cy="112" r="3" fill="rgba(255,255,255,.55)"/><circle cx="537" cy="110" r="3" fill="rgba(255,255,255,.55)"/>
  <ellipse cx="400" cy="450" rx="250" ry="34" fill="rgba(0,0,0,.32)"/>
  
  
  <g filter="url(#glow)">
    <g transform="translate(245 250)">
      <ellipse cx="0" cy="186" rx="88" ry="24" fill="rgba(0,0,0,.25)"/>
      <path d="M-88 200 C-82 94 82 94 88 200 Z" fill="#ffb53d"/>
      <circle cx="0" cy="34" r="70" fill="#e6b18d"/>
      <path d="M-68 24 C-42 -62 55 -58 74 32 C28 10 -20 15 -68 24Z" fill="#3b2e2a"/>
      <circle cx="-24" cy="34" r="7" fill="#151827"/><circle cx="24" cy="34" r="7" fill="#151827"/>
      <path d="M-22 68 C-5 82 12 82 28 68" stroke="#151827" stroke-width="7" stroke-linecap="round" fill="none"/>
      <path d="M-86 120 C-148 152 -150 232 -96 252" stroke="#e6b18d" stroke-width="28" stroke-linecap="round" fill="none"/>
    </g>
    <g transform="translate(555 250)">
      <ellipse cx="0" cy="186" rx="88" ry="24" fill="rgba(0,0,0,.25)"/>
      <path d="M-88 200 C-82 94 82 94 88 200 Z" fill="#ffe66d"/>
      <circle cx="0" cy="34" r="70" fill="#b8754f"/>
      <path d="M-74 34 C-62 -54 58 -62 76 34 C36 8 -22 8 -74 34Z" fill="#5a3217"/>
      <circle cx="-24" cy="34" r="7" fill="#151827"/><circle cx="24" cy="34" r="7" fill="#151827"/>
      <path d="M-28 68 C-9 83 12 83 30 68" stroke="#151827" stroke-width="7" stroke-linecap="round" fill="none"/>
      <path d="M86 120 C148 152 150 232 96 252" stroke="#b8754f" stroke-width="28" stroke-linecap="round" fill="none"/>
    </g>
  </g>
  <rect x="28" y="28" width="744" height="464" rx="28" fill="none" stroke="rgba(255,255,255,.44)" stroke-width="4"/>
</svg>