<svg xmlns="http://www.w3.org/2000/svg" viewBox="0 0 800 520">
  <defs>
    <linearGradient id="bg" x1="0" x2="1" y1="0" y2="1"><stop offset="0" stop-color="#72ffda"/><stop offset="1" stop-color="#9b5cff"/></linearGradient>
    <filter id="glow" x="-30%" y="-30%" width="160%" height="160%"><feGaussianBlur stdDeviation="8" result="b"/><feMerge><feMergeNode in="b"/><feMergeNode in="SourceGraphic"/></feMerge></filter>
  </defs>
  <rect width="800" height="520" rx="38" fill="#06091d"/>
  <rect x="18" y="18" width="764" height="484" rx="32" fill="url(#bg)" opacity=".82"/>
  <rect x="18" y="18" width="764" height="484" rx="32" fill="rgba(6,9,29,.28)"/>
  <circle cx="671" cy="97" r="3" fill="rgba(255,255,255,.55)"/><circle cx="471" cy="85" r="4" fill="rgba(255,255,255,.55)"/><circle cx="429" cy="81" r="2" fill="rgba(255,255,255,.55)"/><circle cx="108" cy="179" r="3" fill="rgba(255,255,255,.55)"/><circle cx="566" cy="52" r="2" fill="rgba(255,255,255,.55)"/><circle cx="129" cy="427" r="4" fill="rgba(255,255,255,.55)"/><circle cx="290" cy="120" r="2" fill="rgba(255,255,255,.55)"/><circle cx="86" cy="246" r="5" fill="rgba(255,255,255,.55)"/><circle cx="601" cy="44" r="4" fill="rgba(255,255,255,.55)"/><circle cx="292" cy="218" r="3" fill="rgba(255,255,255,.55)"/><circle cx="407" cy="292" r="4" fill="rgba(255,255,255,.55)"/><circle cx="175" cy="191" r="5" fill="rgba(255,255,255,.55)"/><circle cx="381" cy="233" r="2" fill="rgba(255,255,255,.55)"/><circle cx="543" cy="114" r="3" fill="rgba(255,255,255,.55)"/><circle cx="71" cy="161" r="3" fill="rgba(255,255,255,.55)"/><circle cx="197" cy="380" r="5" fill="rgba(255,255,255,.55)"/><circle cx="244" cy="376" r="3" fill="rgba(255,255,255,.55)"/><circle cx="180" cy="194" r="2" fill="rgba(255,255,255,.55)"/><circle cx="96" cy="115" r="4" fill="rgba(255,255,255,.55)"/><circle cx="648" cy="219" r="2" fill="rgba(255,255,255,.55)"/><circle cx="469" cy="177" r="3" fill="rgba(255,255,255,.55)"/><circle cx="295" cy="177" r="3" fill="rgba(255,255,255,.55)"/>
  <ellipse cx="400" cy="450" rx="250" ry="34" fill="rgba(0,0,0,.32)"/>
  
  <path d="M372 354 C430 390 494 390 552 354" fill="none" stroke="rgba(255,255,255,.55)" stroke-width="16" stroke-linecap="round"/>
  <g filter="url(#glow)">
    <g transform="translate(245 250)">
      <ellipse cx="0" cy="186" rx="88" ry="24" fill="rgba(0,0,0,.25)"/>
      <path d="M-88 200 C-82 94 82 94 88 200 Z" fill="#5cffb1"/>
      <circle cx="0" cy="34" r="70" fill="#8f5d42"/>
      <path d="M-68 24 C-42 -62 55 -58 74 32 C28 10 -20 15 -68 24Z" fill="#20120d"/>
      <circle cx="-24" cy="34" r="7" fill="#151827"/><circle cx="24" cy="34" r="7" fill="#151827"/>
      <path d="M-22 68 C-5 82 12 82 28 68" stroke="#151827" stroke-width="7" stroke-linecap="round" fill="none"/>
      <path d="M-86 120 C-148 152 -150 232 -96 252" stroke="#8f5d42" stroke-width="28" stroke-linecap="round" fill="none"/>
    </g>
    <g transform="translate(555 250)">
      <ellipse cx="0" cy="186" rx="88" ry="24" fill="rgba(0,0,0,.25)"/>
      <path d="M-88 200 C-82 94 82 94 88 200 Z" fill="#ff7a5c"/>
      <circle cx="0" cy="34" r="70" fill="#e6b18d"/>
      <path d="M-74 34 C-62 -54 58 -62 76 34 C36 8 -22 8 -74 34Z" fill="#10131c"/>
      <circle cx="-24" cy="34" r="7" fill="#151827"/><circle cx="24" cy="34" r="7" fill="#151827"/>
      <path d="M-28 68 C-9 83 12 83 30 68" stroke="#151827" stroke-width="7" stroke-linecap="round" fill="none"/>
      <path d="M86 120 C148 152 150 232 96 252" stroke="#e6b18d" stroke-width="28" stroke-linecap="round" fill="none"/>
    </g>
  </g>
  <rect x="28" y="28" width="744" height="464" rx="28" fill="none" stroke="rgba(255,255,255,.44)" stroke-width="4"/>
</svg>