<svg xmlns="http://www.w3.org/2000/svg" viewBox="0 0 800 520">
  <defs>
    <linearGradient id="bg" x1="0" x2="1" y1="0" y2="1"><stop offset="0" stop-color="#9b5cff"/><stop offset="1" stop-color="#ff7a5c"/></linearGradient>
    <filter id="glow" x="-30%" y="-30%" width="160%" height="160%"><feGaussianBlur stdDeviation="8" result="b"/><feMerge><feMergeNode in="b"/><feMergeNode in="SourceGraphic"/></feMerge></filter>
  </defs>
  <rect width="800" height="520" rx="38" fill="#06091d"/>
  <rect x="18" y="18" width="764" height="484" rx="32" fill="url(#bg)" opacity=".82"/>
  <rect x="18" y="18" width="764" height="484" rx="32" fill="rgba(6,9,29,.28)"/>
  <circle cx="436" cy="329" r="4" fill="rgba(255,255,255,.55)"/><circle cx="686" cy="318" r="4" fill="rgba(255,255,255,.55)"/><circle cx="145" cy="79" r="3" fill="rgba(255,255,255,.55)"/><circle cx="488" cy="213" r="2" fill="rgba(255,255,255,.55)"/><circle cx="692" cy="337" r="2" fill="rgba(255,255,255,.55)"/><circle cx="258" cy="286" r="5" fill="rgba(255,255,255,.55)"/><circle cx="740" cy="313" r="4" fill="rgba(255,255,255,.55)"/><circle cx="90" cy="132" r="3" fill="rgba(255,255,255,.55)"/><circle cx="507" cy="63" r="2" fill="rgba(255,255,255,.55)"/><circle cx="359" cy="67" r="3" fill="rgba(255,255,255,.55)"/><circle cx="190" cy="365" r="3" fill="rgba(255,255,255,.55)"/><circle cx="249" cy="209" r="2" fill="rgba(255,255,255,.55)"/><circle cx="472" cy="303" r="2" fill="rgba(255,255,255,.55)"/><circle cx="389" cy="326" r="3" fill="rgba(255,255,255,.55)"/><circle cx="740" cy="263" r="4" fill="rgba(255,255,255,.55)"/><circle cx="626" cy="230" r="2" fill="rgba(255,255,255,.55)"/><circle cx="702" cy="39" r="4" fill="rgba(255,255,255,.55)"/><circle cx="624" cy="375" r="5" fill="rgba(255,255,255,.55)"/><circle cx="644" cy="234" r="4" fill="rgba(255,255,255,.55)"/><circle cx="282" cy="42" r="4" fill="rgba(255,255,255,.55)"/><circle cx="711" cy="67" r="2" fill="rgba(255,255,255,.55)"/><circle cx="687" cy="202" r="3" fill="rgba(255,255,255,.55)"/>
  <ellipse cx="400" cy="450" rx="250" ry="34" fill="rgba(0,0,0,.32)"/>
  
  
  <g filter="url(#glow)">
    <g transform="translate(245 250)">
      <ellipse cx="0" cy="186" rx="88" ry="24" fill="rgba(0,0,0,.25)"/>
      <path d="M-88 200 C-82 94 82 94 88 200 Z" fill="#ff7a5c"/>
      <circle cx="0" cy="34" r="70" fill="#8f5d42"/>
      <path d="M-68 24 C-42 -62 55 -58 74 32 C28 10 -20 15 -68 24Z" fill="#d8a348"/>
      <circle cx="-24" cy="34" r="7" fill="#151827"/><circle cx="24" cy="34" r="7" fill="#151827"/>
      <path d="M-22 68 C-5 82 12 82 28 68" stroke="#151827" stroke-width="7" stroke-linecap="round" fill="none"/>
      <path d="M-86 120 C-148 152 -150 232 -96 252" stroke="#8f5d42" stroke-width="28" stroke-linecap="round" fill="none"/>
    </g>
    <g transform="translate(555 250)">
      <ellipse cx="0" cy="186" rx="88" ry="24" fill="rgba(0,0,0,.25)"/>
      <path d="M-88 200 C-82 94 82 94 88 200 Z" fill="#ffb53d"/>
      <circle cx="0" cy="34" r="70" fill="#f3c7a1"/>
      <path d="M-74 34 C-62 -54 58 -62 76 34 C36 8 -22 8 -74 34Z" fill="#d8a348"/>
      <circle cx="-24" cy="34" r="7" fill="#151827"/><circle cx="24" cy="34" r="7" fill="#151827"/>
      <path d="M-28 68 C-9 83 12 83 30 68" stroke="#151827" stroke-width="7" stroke-linecap="round" fill="none"/>
      <path d="M86 120 C148 152 150 232 96 252" stroke="#f3c7a1" stroke-width="28" stroke-linecap="round" fill="none"/>
    </g>
  </g>
  <rect x="28" y="28" width="744" height="464" rx="28" fill="none" stroke="rgba(255,255,255,.44)" stroke-width="4"/>
</svg>