<svg xmlns="http://www.w3.org/2000/svg" viewBox="0 0 800 520">
  <defs>
    <linearGradient id="bg" x1="0" x2="1" y1="0" y2="1"><stop offset="0" stop-color="#36e8ff"/><stop offset="1" stop-color="#ff5edb"/></linearGradient>
    <filter id="glow" x="-30%" y="-30%" width="160%" height="160%"><feGaussianBlur stdDeviation="8" result="b"/><feMerge><feMergeNode in="b"/><feMergeNode in="SourceGraphic"/></feMerge></filter>
  </defs>
  <rect width="800" height="520" rx="38" fill="#06091d"/>
  <rect x="18" y="18" width="764" height="484" rx="32" fill="url(#bg)" opacity=".82"/>
  <rect x="18" y="18" width="764" height="484" rx="32" fill="rgba(6,9,29,.28)"/>
  <circle cx="284" cy="130" r="4" fill="rgba(255,255,255,.55)"/><circle cx="303" cy="79" r="3" fill="rgba(255,255,255,.55)"/><circle cx="475" cy="245" r="4" fill="rgba(255,255,255,.55)"/><circle cx="583" cy="397" r="5" fill="rgba(255,255,255,.55)"/><circle cx="313" cy="163" r="3" fill="rgba(255,255,255,.55)"/><circle cx="667" cy="268" r="5" fill="rgba(255,255,255,.55)"/><circle cx="473" cy="240" r="3" fill="rgba(255,255,255,.55)"/><circle cx="86" cy="119" r="5" fill="rgba(255,255,255,.55)"/><circle cx="509" cy="250" r="5" fill="rgba(255,255,255,.55)"/><circle cx="65" cy="238" r="5" fill="rgba(255,255,255,.55)"/><circle cx="603" cy="324" r="4" fill="rgba(255,255,255,.55)"/><circle cx="635" cy="252" r="4" fill="rgba(255,255,255,.55)"/><circle cx="160" cy="329" r="3" fill="rgba(255,255,255,.55)"/><circle cx="688" cy="81" r="4" fill="rgba(255,255,255,.55)"/><circle cx="144" cy="427" r="5" fill="rgba(255,255,255,.55)"/><circle cx="440" cy="398" r="4" fill="rgba(255,255,255,.55)"/><circle cx="609" cy="418" r="3" fill="rgba(255,255,255,.55)"/><circle cx="410" cy="45" r="5" fill="rgba(255,255,255,.55)"/><circle cx="481" cy="179" r="5" fill="rgba(255,255,255,.55)"/><circle cx="744" cy="63" r="2" fill="rgba(255,255,255,.55)"/><circle cx="687" cy="254" r="5" fill="rgba(255,255,255,.55)"/><circle cx="758" cy="428" r="4" fill="rgba(255,255,255,.55)"/>
  <ellipse cx="400" cy="450" rx="250" ry="34" fill="rgba(0,0,0,.32)"/>
  
  
  <g filter="url(#glow)">
    <g transform="translate(245 250)">
      <ellipse cx="0" cy="186" rx="88" ry="24" fill="rgba(0,0,0,.25)"/>
      <path d="M-88 200 C-82 94 82 94 88 200 Z" fill="#ff7a5c"/>
      <circle cx="0" cy="34" r="70" fill="#ffd5b8"/>
      <path d="M-68 24 C-42 -62 55 -58 74 32 C28 10 -20 15 -68 24Z" fill="#8f4f2a"/>
      <circle cx="-24" cy="34" r="7" fill="#151827"/><circle cx="24" cy="34" r="7" fill="#151827"/>
      <path d="M-22 68 C-5 82 12 82 28 68" stroke="#151827" stroke-width="7" stroke-linecap="round" fill="none"/>
      <path d="M-86 120 C-148 152 -150 232 -96 252" stroke="#ffd5b8" stroke-width="28" stroke-linecap="round" fill="none"/>
    </g>
    <g transform="translate(555 250)">
      <ellipse cx="0" cy="186" rx="88" ry="24" fill="rgba(0,0,0,.25)"/>
      <path d="M-88 200 C-82 94 82 94 88 200 Z" fill="#ff7a5c"/>
      <circle cx="0" cy="34" r="70" fill="#8f5d42"/>
      <path d="M-74 34 C-62 -54 58 -62 76 34 C36 8 -22 8 -74 34Z" fill="#3b2e2a"/>
      <circle cx="-24" cy="34" r="7" fill="#151827"/><circle cx="24" cy="34" r="7" fill="#151827"/>
      <path d="M-28 68 C-9 83 12 83 30 68" stroke="#151827" stroke-width="7" stroke-linecap="round" fill="none"/>
      <path d="M86 120 C148 152 150 232 96 252" stroke="#8f5d42" stroke-width="28" stroke-linecap="round" fill="none"/>
    </g>
  </g>
  <rect x="28" y="28" width="744" height="464" rx="28" fill="none" stroke="rgba(255,255,255,.44)" stroke-width="4"/>
</svg>