<svg xmlns="http://www.w3.org/2000/svg" viewBox="0 0 800 520">
  <defs>
    <linearGradient id="bg" x1="0" x2="1" y1="0" y2="1"><stop offset="0" stop-color="#5cffb1"/><stop offset="1" stop-color="#36e8ff"/></linearGradient>
    <filter id="glow" x="-30%" y="-30%" width="160%" height="160%"><feGaussianBlur stdDeviation="8" result="b"/><feMerge><feMergeNode in="b"/><feMergeNode in="SourceGraphic"/></feMerge></filter>
  </defs>
  <rect width="800" height="520" rx="38" fill="#06091d"/>
  <rect x="18" y="18" width="764" height="484" rx="32" fill="url(#bg)" opacity=".82"/>
  <rect x="18" y="18" width="764" height="484" rx="32" fill="rgba(6,9,29,.28)"/>
  <circle cx="330" cy="45" r="4" fill="rgba(255,255,255,.55)"/><circle cx="687" cy="286" r="5" fill="rgba(255,255,255,.55)"/><circle cx="169" cy="238" r="2" fill="rgba(255,255,255,.55)"/><circle cx="453" cy="185" r="4" fill="rgba(255,255,255,.55)"/><circle cx="203" cy="241" r="3" fill="rgba(255,255,255,.55)"/><circle cx="631" cy="79" r="4" fill="rgba(255,255,255,.55)"/><circle cx="138" cy="341" r="5" fill="rgba(255,255,255,.55)"/><circle cx="389" cy="125" r="2" fill="rgba(255,255,255,.55)"/><circle cx="567" cy="187" r="5" fill="rgba(255,255,255,.55)"/><circle cx="349" cy="245" r="5" fill="rgba(255,255,255,.55)"/><circle cx="701" cy="334" r="4" fill="rgba(255,255,255,.55)"/><circle cx="128" cy="315" r="4" fill="rgba(255,255,255,.55)"/><circle cx="243" cy="191" r="5" fill="rgba(255,255,255,.55)"/><circle cx="618" cy="270" r="5" fill="rgba(255,255,255,.55)"/><circle cx="224" cy="198" r="2" fill="rgba(255,255,255,.55)"/><circle cx="589" cy="91" r="5" fill="rgba(255,255,255,.55)"/><circle cx="488" cy="180" r="4" fill="rgba(255,255,255,.55)"/><circle cx="683" cy="35" r="4" fill="rgba(255,255,255,.55)"/><circle cx="134" cy="284" r="3" fill="rgba(255,255,255,.55)"/><circle cx="723" cy="384" r="4" fill="rgba(255,255,255,.55)"/><circle cx="114" cy="255" r="5" fill="rgba(255,255,255,.55)"/><circle cx="320" cy="187" r="2" fill="rgba(255,255,255,.55)"/>
  <ellipse cx="400" cy="450" rx="250" ry="34" fill="rgba(0,0,0,.32)"/>
  
  <path d="M372 354 C430 390 494 390 552 354" fill="none" stroke="rgba(255,255,255,.55)" stroke-width="16" stroke-linecap="round"/>
  <g filter="url(#glow)">
    <g transform="translate(245 250)">
      <ellipse cx="0" cy="186" rx="88" ry="24" fill="rgba(0,0,0,.25)"/>
      <path d="M-88 200 C-82 94 82 94 88 200 Z" fill="#9b5cff"/>
      <circle cx="0" cy="34" r="70" fill="#8f5d42"/>
      <path d="M-68 24 C-42 -62 55 -58 74 32 C28 10 -20 15 -68 24Z" fill="#8f4f2a"/>
      <circle cx="-24" cy="34" r="7" fill="#151827"/><circle cx="24" cy="34" r="7" fill="#151827"/>
      <path d="M-22 68 C-5 82 12 82 28 68" stroke="#151827" stroke-width="7" stroke-linecap="round" fill="none"/>
      <path d="M-86 120 C-148 152 -150 232 -96 252" stroke="#8f5d42" stroke-width="28" stroke-linecap="round" fill="none"/>
    </g>
    <g transform="translate(555 250)">
      <ellipse cx="0" cy="186" rx="88" ry="24" fill="rgba(0,0,0,.25)"/>
      <path d="M-88 200 C-82 94 82 94 88 200 Z" fill="#9b5cff"/>
      <circle cx="0" cy="34" r="70" fill="#8f5d42"/>
      <path d="M-74 34 C-62 -54 58 -62 76 34 C36 8 -22 8 -74 34Z" fill="#10131c"/>
      <circle cx="-24" cy="34" r="7" fill="#151827"/><circle cx="24" cy="34" r="7" fill="#151827"/>
      <path d="M-28 68 C-9 83 12 83 30 68" stroke="#151827" stroke-width="7" stroke-linecap="round" fill="none"/>
      <path d="M86 120 C148 152 150 232 96 252" stroke="#8f5d42" stroke-width="28" stroke-linecap="round" fill="none"/>
    </g>
  </g>
  <rect x="28" y="28" width="744" height="464" rx="28" fill="none" stroke="rgba(255,255,255,.44)" stroke-width="4"/>
</svg>