<svg xmlns="http://www.w3.org/2000/svg" viewBox="0 0 800 520">
  <defs>
    <linearGradient id="bg" x1="0" x2="1" y1="0" y2="1"><stop offset="0" stop-color="#ff5edb"/><stop offset="1" stop-color="#ff7a5c"/></linearGradient>
    <filter id="glow" x="-30%" y="-30%" width="160%" height="160%"><feGaussianBlur stdDeviation="8" result="b"/><feMerge><feMergeNode in="b"/><feMergeNode in="SourceGraphic"/></feMerge></filter>
  </defs>
  <rect width="800" height="520" rx="38" fill="#06091d"/>
  <rect x="18" y="18" width="764" height="484" rx="32" fill="url(#bg)" opacity=".82"/>
  <rect x="18" y="18" width="764" height="484" rx="32" fill="rgba(6,9,29,.28)"/>
  <circle cx="355" cy="192" r="5" fill="rgba(255,255,255,.55)"/><circle cx="254" cy="242" r="5" fill="rgba(255,255,255,.55)"/><circle cx="368" cy="118" r="2" fill="rgba(255,255,255,.55)"/><circle cx="328" cy="419" r="5" fill="rgba(255,255,255,.55)"/><circle cx="349" cy="174" r="5" fill="rgba(255,255,255,.55)"/><circle cx="48" cy="215" r="3" fill="rgba(255,255,255,.55)"/><circle cx="91" cy="337" r="5" fill="rgba(255,255,255,.55)"/><circle cx="502" cy="413" r="5" fill="rgba(255,255,255,.55)"/><circle cx="98" cy="429" r="4" fill="rgba(255,255,255,.55)"/><circle cx="222" cy="186" r="2" fill="rgba(255,255,255,.55)"/><circle cx="637" cy="230" r="5" fill="rgba(255,255,255,.55)"/><circle cx="99" cy="399" r="4" fill="rgba(255,255,255,.55)"/><circle cx="642" cy="168" r="4" fill="rgba(255,255,255,.55)"/><circle cx="341" cy="78" r="3" fill="rgba(255,255,255,.55)"/><circle cx="555" cy="302" r="5" fill="rgba(255,255,255,.55)"/><circle cx="215" cy="322" r="3" fill="rgba(255,255,255,.55)"/><circle cx="122" cy="88" r="5" fill="rgba(255,255,255,.55)"/><circle cx="365" cy="43" r="4" fill="rgba(255,255,255,.55)"/><circle cx="173" cy="127" r="3" fill="rgba(255,255,255,.55)"/><circle cx="268" cy="230" r="4" fill="rgba(255,255,255,.55)"/><circle cx="683" cy="384" r="4" fill="rgba(255,255,255,.55)"/><circle cx="702" cy="112" r="4" fill="rgba(255,255,255,.55)"/>
  <ellipse cx="400" cy="450" rx="250" ry="34" fill="rgba(0,0,0,.32)"/>
  
  
  <g filter="url(#glow)">
    <g transform="translate(245 250)">
      <ellipse cx="0" cy="186" rx="88" ry="24" fill="rgba(0,0,0,.25)"/>
      <path d="M-88 200 C-82 94 82 94 88 200 Z" fill="#ff7a5c"/>
      <circle cx="0" cy="34" r="70" fill="#b8754f"/>
      <path d="M-68 24 C-42 -62 55 -58 74 32 C28 10 -20 15 -68 24Z" fill="#5a3217"/>
      <circle cx="-24" cy="34" r="7" fill="#151827"/><circle cx="24" cy="34" r="7" fill="#151827"/>
      <path d="M-22 68 C-5 82 12 82 28 68" stroke="#151827" stroke-width="7" stroke-linecap="round" fill="none"/>
      <path d="M-86 120 C-148 152 -150 232 -96 252" stroke="#b8754f" stroke-width="28" stroke-linecap="round" fill="none"/>
    </g>
    <g transform="translate(555 250)">
      <ellipse cx="0" cy="186" rx="88" ry="24" fill="rgba(0,0,0,.25)"/>
      <path d="M-88 200 C-82 94 82 94 88 200 Z" fill="#ff7a5c"/>
      <circle cx="0" cy="34" r="70" fill="#d8a071"/>
      <path d="M-74 34 C-62 -54 58 -62 76 34 C36 8 -22 8 -74 34Z" fill="#20120d"/>
      <circle cx="-24" cy="34" r="7" fill="#151827"/><circle cx="24" cy="34" r="7" fill="#151827"/>
      <path d="M-28 68 C-9 83 12 83 30 68" stroke="#151827" stroke-width="7" stroke-linecap="round" fill="none"/>
      <path d="M86 120 C148 152 150 232 96 252" stroke="#d8a071" stroke-width="28" stroke-linecap="round" fill="none"/>
    </g>
  </g>
  <rect x="28" y="28" width="744" height="464" rx="28" fill="none" stroke="rgba(255,255,255,.44)" stroke-width="4"/>
</svg>