<svg xmlns="http://www.w3.org/2000/svg" viewBox="0 0 800 520">
  <defs>
    <linearGradient id="bg" x1="0" x2="1" y1="0" y2="1"><stop offset="0" stop-color="#ff5edb"/><stop offset="1" stop-color="#ff5edb"/></linearGradient>
    <filter id="glow" x="-30%" y="-30%" width="160%" height="160%"><feGaussianBlur stdDeviation="8" result="b"/><feMerge><feMergeNode in="b"/><feMergeNode in="SourceGraphic"/></feMerge></filter>
  </defs>
  <rect width="800" height="520" rx="38" fill="#06091d"/>
  <rect x="18" y="18" width="764" height="484" rx="32" fill="url(#bg)" opacity=".82"/>
  <rect x="18" y="18" width="764" height="484" rx="32" fill="rgba(6,9,29,.28)"/>
  <circle cx="637" cy="326" r="4" fill="rgba(255,255,255,.55)"/><circle cx="309" cy="299" r="4" fill="rgba(255,255,255,.55)"/><circle cx="628" cy="149" r="5" fill="rgba(255,255,255,.55)"/><circle cx="115" cy="62" r="5" fill="rgba(255,255,255,.55)"/><circle cx="350" cy="131" r="2" fill="rgba(255,255,255,.55)"/><circle cx="401" cy="61" r="4" fill="rgba(255,255,255,.55)"/><circle cx="368" cy="220" r="4" fill="rgba(255,255,255,.55)"/><circle cx="479" cy="172" r="2" fill="rgba(255,255,255,.55)"/><circle cx="50" cy="113" r="3" fill="rgba(255,255,255,.55)"/><circle cx="529" cy="195" r="2" fill="rgba(255,255,255,.55)"/><circle cx="434" cy="335" r="2" fill="rgba(255,255,255,.55)"/><circle cx="341" cy="222" r="2" fill="rgba(255,255,255,.55)"/><circle cx="396" cy="70" r="2" fill="rgba(255,255,255,.55)"/><circle cx="308" cy="382" r="3" fill="rgba(255,255,255,.55)"/><circle cx="624" cy="299" r="3" fill="rgba(255,255,255,.55)"/><circle cx="355" cy="317" r="2" fill="rgba(255,255,255,.55)"/><circle cx="692" cy="145" r="2" fill="rgba(255,255,255,.55)"/><circle cx="711" cy="361" r="2" fill="rgba(255,255,255,.55)"/><circle cx="408" cy="104" r="2" fill="rgba(255,255,255,.55)"/><circle cx="711" cy="241" r="4" fill="rgba(255,255,255,.55)"/><circle cx="558" cy="38" r="2" fill="rgba(255,255,255,.55)"/><circle cx="402" cy="150" r="5" fill="rgba(255,255,255,.55)"/>
  <ellipse cx="400" cy="450" rx="250" ry="34" fill="rgba(0,0,0,.32)"/>
  
  
  <g filter="url(#glow)">
    <g transform="translate(245 250)">
      <ellipse cx="0" cy="186" rx="88" ry="24" fill="rgba(0,0,0,.25)"/>
      <path d="M-88 200 C-82 94 82 94 88 200 Z" fill="#5cffb1"/>
      <circle cx="0" cy="34" r="70" fill="#ffd5b8"/>
      <path d="M-68 24 C-42 -62 55 -58 74 32 C28 10 -20 15 -68 24Z" fill="#d8a348"/>
      <circle cx="-24" cy="34" r="7" fill="#151827"/><circle cx="24" cy="34" r="7" fill="#151827"/>
      <path d="M-22 68 C-5 82 12 82 28 68" stroke="#151827" stroke-width="7" stroke-linecap="round" fill="none"/>
      <path d="M-86 120 C-148 152 -150 232 -96 252" stroke="#ffd5b8" stroke-width="28" stroke-linecap="round" fill="none"/>
    </g>
    <g transform="translate(555 250)">
      <ellipse cx="0" cy="186" rx="88" ry="24" fill="rgba(0,0,0,.25)"/>
      <path d="M-88 200 C-82 94 82 94 88 200 Z" fill="#5cffb1"/>
      <circle cx="0" cy="34" r="70" fill="#8f5d42"/>
      <path d="M-74 34 C-62 -54 58 -62 76 34 C36 8 -22 8 -74 34Z" fill="#10131c"/>
      <circle cx="-24" cy="34" r="7" fill="#151827"/><circle cx="24" cy="34" r="7" fill="#151827"/>
      <path d="M-28 68 C-9 83 12 83 30 68" stroke="#151827" stroke-width="7" stroke-linecap="round" fill="none"/>
      <path d="M86 120 C148 152 150 232 96 252" stroke="#8f5d42" stroke-width="28" stroke-linecap="round" fill="none"/>
    </g>
  </g>
  <rect x="28" y="28" width="744" height="464" rx="28" fill="none" stroke="rgba(255,255,255,.44)" stroke-width="4"/>
</svg>