<svg xmlns="http://www.w3.org/2000/svg" viewBox="0 0 800 520">
  <defs>
    <linearGradient id="bg" x1="0" x2="1" y1="0" y2="1"><stop offset="0" stop-color="#9b5cff"/><stop offset="1" stop-color="#ffb53d"/></linearGradient>
    <filter id="glow" x="-30%" y="-30%" width="160%" height="160%"><feGaussianBlur stdDeviation="8" result="b"/><feMerge><feMergeNode in="b"/><feMergeNode in="SourceGraphic"/></feMerge></filter>
  </defs>
  <rect width="800" height="520" rx="38" fill="#06091d"/>
  <rect x="18" y="18" width="764" height="484" rx="32" fill="url(#bg)" opacity=".82"/>
  <rect x="18" y="18" width="764" height="484" rx="32" fill="rgba(6,9,29,.28)"/>
  <circle cx="605" cy="66" r="3" fill="rgba(255,255,255,.55)"/><circle cx="359" cy="304" r="3" fill="rgba(255,255,255,.55)"/><circle cx="373" cy="341" r="4" fill="rgba(255,255,255,.55)"/><circle cx="128" cy="378" r="4" fill="rgba(255,255,255,.55)"/><circle cx="512" cy="283" r="2" fill="rgba(255,255,255,.55)"/><circle cx="369" cy="238" r="3" fill="rgba(255,255,255,.55)"/><circle cx="309" cy="136" r="3" fill="rgba(255,255,255,.55)"/><circle cx="556" cy="58" r="4" fill="rgba(255,255,255,.55)"/><circle cx="530" cy="110" r="5" fill="rgba(255,255,255,.55)"/><circle cx="353" cy="294" r="3" fill="rgba(255,255,255,.55)"/><circle cx="73" cy="132" r="5" fill="rgba(255,255,255,.55)"/><circle cx="161" cy="290" r="3" fill="rgba(255,255,255,.55)"/><circle cx="511" cy="424" r="4" fill="rgba(255,255,255,.55)"/><circle cx="41" cy="181" r="5" fill="rgba(255,255,255,.55)"/><circle cx="204" cy="403" r="2" fill="rgba(255,255,255,.55)"/><circle cx="371" cy="248" r="2" fill="rgba(255,255,255,.55)"/><circle cx="596" cy="156" r="2" fill="rgba(255,255,255,.55)"/><circle cx="57" cy="409" r="5" fill="rgba(255,255,255,.55)"/><circle cx="105" cy="258" r="4" fill="rgba(255,255,255,.55)"/><circle cx="164" cy="298" r="5" fill="rgba(255,255,255,.55)"/><circle cx="302" cy="232" r="2" fill="rgba(255,255,255,.55)"/><circle cx="179" cy="163" r="4" fill="rgba(255,255,255,.55)"/>
  <ellipse cx="400" cy="450" rx="250" ry="34" fill="rgba(0,0,0,.32)"/>
  <path d="M455 220 C455 190 492 184 512 212 C532 184 569 190 569 220 C569 258 512 292 512 292 C512 292 455 258 455 220Z" fill="rgba(255,94,219,.55)"/>
  <path d="M372 354 C430 390 494 390 552 354" fill="none" stroke="rgba(255,255,255,.55)" stroke-width="16" stroke-linecap="round"/>
  <g filter="url(#glow)">
    <g transform="translate(245 250)">
      <ellipse cx="0" cy="186" rx="88" ry="24" fill="rgba(0,0,0,.25)"/>
      <path d="M-88 200 C-82 94 82 94 88 200 Z" fill="#ff7a5c"/>
      <circle cx="0" cy="34" r="70" fill="#ffd5b8"/>
      <path d="M-68 24 C-42 -62 55 -58 74 32 C28 10 -20 15 -68 24Z" fill="#20120d"/>
      <circle cx="-24" cy="34" r="7" fill="#151827"/><circle cx="24" cy="34" r="7" fill="#151827"/>
      <path d="M-22 68 C-5 82 12 82 28 68" stroke="#151827" stroke-width="7" stroke-linecap="round" fill="none"/>
      <path d="M-86 120 C-148 152 -150 232 -96 252" stroke="#ffd5b8" stroke-width="28" stroke-linecap="round" fill="none"/>
    </g>
    <g transform="translate(555 250)">
      <ellipse cx="0" cy="186" rx="88" ry="24" fill="rgba(0,0,0,.25)"/>
      <path d="M-88 200 C-82 94 82 94 88 200 Z" fill="#ff5edb"/>
      <circle cx="0" cy="34" r="70" fill="#ffd5b8"/>
      <path d="M-74 34 C-62 -54 58 -62 76 34 C36 8 -22 8 -74 34Z" fill="#10131c"/>
      <circle cx="-24" cy="34" r="7" fill="#151827"/><circle cx="24" cy="34" r="7" fill="#151827"/>
      <path d="M-28 68 C-9 83 12 83 30 68" stroke="#151827" stroke-width="7" stroke-linecap="round" fill="none"/>
      <path d="M86 120 C148 152 150 232 96 252" stroke="#ffd5b8" stroke-width="28" stroke-linecap="round" fill="none"/>
    </g>
  </g>
  <rect x="28" y="28" width="744" height="464" rx="28" fill="none" stroke="rgba(255,255,255,.44)" stroke-width="4"/>
</svg>