<svg xmlns="http://www.w3.org/2000/svg" viewBox="0 0 800 520">
  <defs>
    <linearGradient id="bg" x1="0" x2="1" y1="0" y2="1"><stop offset="0" stop-color="#72ffda"/><stop offset="1" stop-color="#ffb53d"/></linearGradient>
    <filter id="glow" x="-30%" y="-30%" width="160%" height="160%"><feGaussianBlur stdDeviation="8" result="b"/><feMerge><feMergeNode in="b"/><feMergeNode in="SourceGraphic"/></feMerge></filter>
  </defs>
  <rect width="800" height="520" rx="38" fill="#06091d"/>
  <rect x="18" y="18" width="764" height="484" rx="32" fill="url(#bg)" opacity=".82"/>
  <rect x="18" y="18" width="764" height="484" rx="32" fill="rgba(6,9,29,.28)"/>
  <circle cx="736" cy="350" r="4" fill="rgba(255,255,255,.55)"/><circle cx="583" cy="353" r="2" fill="rgba(255,255,255,.55)"/><circle cx="558" cy="122" r="5" fill="rgba(255,255,255,.55)"/><circle cx="200" cy="87" r="4" fill="rgba(255,255,255,.55)"/><circle cx="514" cy="87" r="4" fill="rgba(255,255,255,.55)"/><circle cx="216" cy="395" r="4" fill="rgba(255,255,255,.55)"/><circle cx="706" cy="269" r="3" fill="rgba(255,255,255,.55)"/><circle cx="76" cy="386" r="5" fill="rgba(255,255,255,.55)"/><circle cx="746" cy="425" r="3" fill="rgba(255,255,255,.55)"/><circle cx="42" cy="209" r="3" fill="rgba(255,255,255,.55)"/><circle cx="412" cy="423" r="5" fill="rgba(255,255,255,.55)"/><circle cx="529" cy="299" r="2" fill="rgba(255,255,255,.55)"/><circle cx="559" cy="88" r="3" fill="rgba(255,255,255,.55)"/><circle cx="757" cy="414" r="4" fill="rgba(255,255,255,.55)"/><circle cx="163" cy="40" r="2" fill="rgba(255,255,255,.55)"/><circle cx="548" cy="219" r="2" fill="rgba(255,255,255,.55)"/><circle cx="222" cy="285" r="2" fill="rgba(255,255,255,.55)"/><circle cx="411" cy="331" r="3" fill="rgba(255,255,255,.55)"/><circle cx="146" cy="197" r="5" fill="rgba(255,255,255,.55)"/><circle cx="611" cy="382" r="4" fill="rgba(255,255,255,.55)"/><circle cx="81" cy="192" r="3" fill="rgba(255,255,255,.55)"/><circle cx="258" cy="373" r="2" fill="rgba(255,255,255,.55)"/>
  <ellipse cx="400" cy="450" rx="250" ry="34" fill="rgba(0,0,0,.32)"/>
  
  <path d="M372 354 C430 390 494 390 552 354" fill="none" stroke="rgba(255,255,255,.55)" stroke-width="16" stroke-linecap="round"/>
  <g filter="url(#glow)">
    <g transform="translate(245 250)">
      <ellipse cx="0" cy="186" rx="88" ry="24" fill="rgba(0,0,0,.25)"/>
      <path d="M-88 200 C-82 94 82 94 88 200 Z" fill="#5cffb1"/>
      <circle cx="0" cy="34" r="70" fill="#d8a071"/>
      <path d="M-68 24 C-42 -62 55 -58 74 32 C28 10 -20 15 -68 24Z" fill="#8f4f2a"/>
      <circle cx="-24" cy="34" r="7" fill="#151827"/><circle cx="24" cy="34" r="7" fill="#151827"/>
      <path d="M-22 68 C-5 82 12 82 28 68" stroke="#151827" stroke-width="7" stroke-linecap="round" fill="none"/>
      <path d="M-86 120 C-148 152 -150 232 -96 252" stroke="#d8a071" stroke-width="28" stroke-linecap="round" fill="none"/>
    </g>
    <g transform="translate(555 250)">
      <ellipse cx="0" cy="186" rx="88" ry="24" fill="rgba(0,0,0,.25)"/>
      <path d="M-88 200 C-82 94 82 94 88 200 Z" fill="#ff7a5c"/>
      <circle cx="0" cy="34" r="70" fill="#e6b18d"/>
      <path d="M-74 34 C-62 -54 58 -62 76 34 C36 8 -22 8 -74 34Z" fill="#3b2e2a"/>
      <circle cx="-24" cy="34" r="7" fill="#151827"/><circle cx="24" cy="34" r="7" fill="#151827"/>
      <path d="M-28 68 C-9 83 12 83 30 68" stroke="#151827" stroke-width="7" stroke-linecap="round" fill="none"/>
      <path d="M86 120 C148 152 150 232 96 252" stroke="#e6b18d" stroke-width="28" stroke-linecap="round" fill="none"/>
    </g>
  </g>
  <rect x="28" y="28" width="744" height="464" rx="28" fill="none" stroke="rgba(255,255,255,.44)" stroke-width="4"/>
</svg>