<svg xmlns="http://www.w3.org/2000/svg" viewBox="0 0 800 520">
  <defs>
    <linearGradient id="bg" x1="0" x2="1" y1="0" y2="1"><stop offset="0" stop-color="#ffb53d"/><stop offset="1" stop-color="#9b5cff"/></linearGradient>
    <filter id="glow" x="-30%" y="-30%" width="160%" height="160%"><feGaussianBlur stdDeviation="8" result="b"/><feMerge><feMergeNode in="b"/><feMergeNode in="SourceGraphic"/></feMerge></filter>
  </defs>
  <rect width="800" height="520" rx="38" fill="#06091d"/>
  <rect x="18" y="18" width="764" height="484" rx="32" fill="url(#bg)" opacity=".82"/>
  <rect x="18" y="18" width="764" height="484" rx="32" fill="rgba(6,9,29,.28)"/>
  <circle cx="745" cy="303" r="4" fill="rgba(255,255,255,.55)"/><circle cx="434" cy="313" r="5" fill="rgba(255,255,255,.55)"/><circle cx="592" cy="429" r="5" fill="rgba(255,255,255,.55)"/><circle cx="51" cy="128" r="5" fill="rgba(255,255,255,.55)"/><circle cx="547" cy="165" r="4" fill="rgba(255,255,255,.55)"/><circle cx="556" cy="213" r="5" fill="rgba(255,255,255,.55)"/><circle cx="644" cy="351" r="5" fill="rgba(255,255,255,.55)"/><circle cx="632" cy="369" r="2" fill="rgba(255,255,255,.55)"/><circle cx="522" cy="424" r="4" fill="rgba(255,255,255,.55)"/><circle cx="102" cy="262" r="4" fill="rgba(255,255,255,.55)"/><circle cx="436" cy="177" r="2" fill="rgba(255,255,255,.55)"/><circle cx="708" cy="234" r="3" fill="rgba(255,255,255,.55)"/><circle cx="158" cy="168" r="2" fill="rgba(255,255,255,.55)"/><circle cx="644" cy="293" r="3" fill="rgba(255,255,255,.55)"/><circle cx="715" cy="68" r="3" fill="rgba(255,255,255,.55)"/><circle cx="200" cy="169" r="3" fill="rgba(255,255,255,.55)"/><circle cx="87" cy="303" r="4" fill="rgba(255,255,255,.55)"/><circle cx="570" cy="384" r="2" fill="rgba(255,255,255,.55)"/><circle cx="444" cy="223" r="5" fill="rgba(255,255,255,.55)"/><circle cx="370" cy="282" r="4" fill="rgba(255,255,255,.55)"/><circle cx="160" cy="335" r="3" fill="rgba(255,255,255,.55)"/><circle cx="369" cy="131" r="2" fill="rgba(255,255,255,.55)"/>
  <ellipse cx="400" cy="450" rx="250" ry="34" fill="rgba(0,0,0,.32)"/>
  <path d="M455 220 C455 190 492 184 512 212 C532 184 569 190 569 220 C569 258 512 292 512 292 C512 292 455 258 455 220Z" fill="rgba(255,94,219,.55)"/>
  <path d="M372 354 C430 390 494 390 552 354" fill="none" stroke="rgba(255,255,255,.55)" stroke-width="16" stroke-linecap="round"/>
  <g filter="url(#glow)">
    <g transform="translate(245 250)">
      <ellipse cx="0" cy="186" rx="88" ry="24" fill="rgba(0,0,0,.25)"/>
      <path d="M-88 200 C-82 94 82 94 88 200 Z" fill="#ff5edb"/>
      <circle cx="0" cy="34" r="70" fill="#b8754f"/>
      <path d="M-68 24 C-42 -62 55 -58 74 32 C28 10 -20 15 -68 24Z" fill="#3b2e2a"/>
      <circle cx="-24" cy="34" r="7" fill="#151827"/><circle cx="24" cy="34" r="7" fill="#151827"/>
      <path d="M-22 68 C-5 82 12 82 28 68" stroke="#151827" stroke-width="7" stroke-linecap="round" fill="none"/>
      <path d="M-86 120 C-148 152 -150 232 -96 252" stroke="#b8754f" stroke-width="28" stroke-linecap="round" fill="none"/>
    </g>
    <g transform="translate(555 250)">
      <ellipse cx="0" cy="186" rx="88" ry="24" fill="rgba(0,0,0,.25)"/>
      <path d="M-88 200 C-82 94 82 94 88 200 Z" fill="#ff7a5c"/>
      <circle cx="0" cy="34" r="70" fill="#ffd5b8"/>
      <path d="M-74 34 C-62 -54 58 -62 76 34 C36 8 -22 8 -74 34Z" fill="#5a3217"/>
      <circle cx="-24" cy="34" r="7" fill="#151827"/><circle cx="24" cy="34" r="7" fill="#151827"/>
      <path d="M-28 68 C-9 83 12 83 30 68" stroke="#151827" stroke-width="7" stroke-linecap="round" fill="none"/>
      <path d="M86 120 C148 152 150 232 96 252" stroke="#ffd5b8" stroke-width="28" stroke-linecap="round" fill="none"/>
    </g>
  </g>
  <rect x="28" y="28" width="744" height="464" rx="28" fill="none" stroke="rgba(255,255,255,.44)" stroke-width="4"/>
</svg>