<svg xmlns="http://www.w3.org/2000/svg" viewBox="0 0 800 520">
  <defs>
    <linearGradient id="bg" x1="0" x2="1" y1="0" y2="1"><stop offset="0" stop-color="#5cffb1"/><stop offset="1" stop-color="#ff5edb"/></linearGradient>
    <filter id="glow" x="-30%" y="-30%" width="160%" height="160%"><feGaussianBlur stdDeviation="8" result="b"/><feMerge><feMergeNode in="b"/><feMergeNode in="SourceGraphic"/></feMerge></filter>
  </defs>
  <rect width="800" height="520" rx="38" fill="#06091d"/>
  <rect x="18" y="18" width="764" height="484" rx="32" fill="url(#bg)" opacity=".82"/>
  <rect x="18" y="18" width="764" height="484" rx="32" fill="rgba(6,9,29,.28)"/>
  <circle cx="428" cy="129" r="4" fill="rgba(255,255,255,.55)"/><circle cx="226" cy="312" r="5" fill="rgba(255,255,255,.55)"/><circle cx="544" cy="255" r="2" fill="rgba(255,255,255,.55)"/><circle cx="518" cy="329" r="4" fill="rgba(255,255,255,.55)"/><circle cx="442" cy="339" r="4" fill="rgba(255,255,255,.55)"/><circle cx="137" cy="387" r="5" fill="rgba(255,255,255,.55)"/><circle cx="530" cy="199" r="2" fill="rgba(255,255,255,.55)"/><circle cx="594" cy="46" r="5" fill="rgba(255,255,255,.55)"/><circle cx="553" cy="350" r="3" fill="rgba(255,255,255,.55)"/><circle cx="648" cy="402" r="4" fill="rgba(255,255,255,.55)"/><circle cx="349" cy="198" r="3" fill="rgba(255,255,255,.55)"/><circle cx="444" cy="364" r="5" fill="rgba(255,255,255,.55)"/><circle cx="584" cy="208" r="2" fill="rgba(255,255,255,.55)"/><circle cx="108" cy="95" r="3" fill="rgba(255,255,255,.55)"/><circle cx="97" cy="297" r="2" fill="rgba(255,255,255,.55)"/><circle cx="81" cy="270" r="5" fill="rgba(255,255,255,.55)"/><circle cx="616" cy="82" r="3" fill="rgba(255,255,255,.55)"/><circle cx="572" cy="371" r="5" fill="rgba(255,255,255,.55)"/><circle cx="477" cy="385" r="3" fill="rgba(255,255,255,.55)"/><circle cx="578" cy="363" r="5" fill="rgba(255,255,255,.55)"/><circle cx="319" cy="109" r="5" fill="rgba(255,255,255,.55)"/><circle cx="147" cy="136" r="4" fill="rgba(255,255,255,.55)"/>
  <ellipse cx="400" cy="450" rx="250" ry="34" fill="rgba(0,0,0,.32)"/>
  <path d="M455 220 C455 190 492 184 512 212 C532 184 569 190 569 220 C569 258 512 292 512 292 C512 292 455 258 455 220Z" fill="rgba(255,94,219,.55)"/>
  <path d="M372 354 C430 390 494 390 552 354" fill="none" stroke="rgba(255,255,255,.55)" stroke-width="16" stroke-linecap="round"/>
  <g filter="url(#glow)">
    <g transform="translate(245 250)">
      <ellipse cx="0" cy="186" rx="88" ry="24" fill="rgba(0,0,0,.25)"/>
      <path d="M-88 200 C-82 94 82 94 88 200 Z" fill="#72ffda"/>
      <circle cx="0" cy="34" r="70" fill="#b8754f"/>
      <path d="M-68 24 C-42 -62 55 -58 74 32 C28 10 -20 15 -68 24Z" fill="#5a3217"/>
      <circle cx="-24" cy="34" r="7" fill="#151827"/><circle cx="24" cy="34" r="7" fill="#151827"/>
      <path d="M-22 68 C-5 82 12 82 28 68" stroke="#151827" stroke-width="7" stroke-linecap="round" fill="none"/>
      <path d="M-86 120 C-148 152 -150 232 -96 252" stroke="#b8754f" stroke-width="28" stroke-linecap="round" fill="none"/>
    </g>
    <g transform="translate(555 250)">
      <ellipse cx="0" cy="186" rx="88" ry="24" fill="rgba(0,0,0,.25)"/>
      <path d="M-88 200 C-82 94 82 94 88 200 Z" fill="#36e8ff"/>
      <circle cx="0" cy="34" r="70" fill="#e6b18d"/>
      <path d="M-74 34 C-62 -54 58 -62 76 34 C36 8 -22 8 -74 34Z" fill="#3b2e2a"/>
      <circle cx="-24" cy="34" r="7" fill="#151827"/><circle cx="24" cy="34" r="7" fill="#151827"/>
      <path d="M-28 68 C-9 83 12 83 30 68" stroke="#151827" stroke-width="7" stroke-linecap="round" fill="none"/>
      <path d="M86 120 C148 152 150 232 96 252" stroke="#e6b18d" stroke-width="28" stroke-linecap="round" fill="none"/>
    </g>
  </g>
  <rect x="28" y="28" width="744" height="464" rx="28" fill="none" stroke="rgba(255,255,255,.44)" stroke-width="4"/>
</svg>