<svg xmlns="http://www.w3.org/2000/svg" viewBox="0 0 800 520">
  <defs>
    <linearGradient id="bg" x1="0" x2="1" y1="0" y2="1"><stop offset="0" stop-color="#36e8ff"/><stop offset="1" stop-color="#ffb53d"/></linearGradient>
    <filter id="glow" x="-30%" y="-30%" width="160%" height="160%"><feGaussianBlur stdDeviation="8" result="b"/><feMerge><feMergeNode in="b"/><feMergeNode in="SourceGraphic"/></feMerge></filter>
  </defs>
  <rect width="800" height="520" rx="38" fill="#06091d"/>
  <rect x="18" y="18" width="764" height="484" rx="32" fill="url(#bg)" opacity=".82"/>
  <rect x="18" y="18" width="764" height="484" rx="32" fill="rgba(6,9,29,.28)"/>
  <circle cx="63" cy="122" r="5" fill="rgba(255,255,255,.55)"/><circle cx="76" cy="92" r="5" fill="rgba(255,255,255,.55)"/><circle cx="507" cy="313" r="4" fill="rgba(255,255,255,.55)"/><circle cx="520" cy="119" r="4" fill="rgba(255,255,255,.55)"/><circle cx="733" cy="199" r="4" fill="rgba(255,255,255,.55)"/><circle cx="294" cy="263" r="2" fill="rgba(255,255,255,.55)"/><circle cx="492" cy="407" r="5" fill="rgba(255,255,255,.55)"/><circle cx="425" cy="241" r="3" fill="rgba(255,255,255,.55)"/><circle cx="601" cy="238" r="4" fill="rgba(255,255,255,.55)"/><circle cx="111" cy="300" r="2" fill="rgba(255,255,255,.55)"/><circle cx="559" cy="90" r="5" fill="rgba(255,255,255,.55)"/><circle cx="126" cy="384" r="5" fill="rgba(255,255,255,.55)"/><circle cx="514" cy="171" r="5" fill="rgba(255,255,255,.55)"/><circle cx="130" cy="219" r="5" fill="rgba(255,255,255,.55)"/><circle cx="204" cy="236" r="4" fill="rgba(255,255,255,.55)"/><circle cx="390" cy="277" r="2" fill="rgba(255,255,255,.55)"/><circle cx="699" cy="207" r="2" fill="rgba(255,255,255,.55)"/><circle cx="568" cy="185" r="5" fill="rgba(255,255,255,.55)"/><circle cx="66" cy="213" r="2" fill="rgba(255,255,255,.55)"/><circle cx="437" cy="379" r="4" fill="rgba(255,255,255,.55)"/><circle cx="345" cy="81" r="5" fill="rgba(255,255,255,.55)"/><circle cx="424" cy="346" r="4" fill="rgba(255,255,255,.55)"/>
  <ellipse cx="400" cy="450" rx="250" ry="34" fill="rgba(0,0,0,.32)"/>
  
  
  <g filter="url(#glow)">
    <g transform="translate(245 250)">
      <ellipse cx="0" cy="186" rx="88" ry="24" fill="rgba(0,0,0,.25)"/>
      <path d="M-88 200 C-82 94 82 94 88 200 Z" fill="#ffb53d"/>
      <circle cx="0" cy="34" r="70" fill="#d8a071"/>
      <path d="M-68 24 C-42 -62 55 -58 74 32 C28 10 -20 15 -68 24Z" fill="#5a3217"/>
      <circle cx="-24" cy="34" r="7" fill="#151827"/><circle cx="24" cy="34" r="7" fill="#151827"/>
      <path d="M-22 68 C-5 82 12 82 28 68" stroke="#151827" stroke-width="7" stroke-linecap="round" fill="none"/>
      <path d="M-86 120 C-148 152 -150 232 -96 252" stroke="#d8a071" stroke-width="28" stroke-linecap="round" fill="none"/>
    </g>
    <g transform="translate(555 250)">
      <ellipse cx="0" cy="186" rx="88" ry="24" fill="rgba(0,0,0,.25)"/>
      <path d="M-88 200 C-82 94 82 94 88 200 Z" fill="#ffb53d"/>
      <circle cx="0" cy="34" r="70" fill="#e6b18d"/>
      <path d="M-74 34 C-62 -54 58 -62 76 34 C36 8 -22 8 -74 34Z" fill="#8f4f2a"/>
      <circle cx="-24" cy="34" r="7" fill="#151827"/><circle cx="24" cy="34" r="7" fill="#151827"/>
      <path d="M-28 68 C-9 83 12 83 30 68" stroke="#151827" stroke-width="7" stroke-linecap="round" fill="none"/>
      <path d="M86 120 C148 152 150 232 96 252" stroke="#e6b18d" stroke-width="28" stroke-linecap="round" fill="none"/>
    </g>
  </g>
  <rect x="28" y="28" width="744" height="464" rx="28" fill="none" stroke="rgba(255,255,255,.44)" stroke-width="4"/>
</svg>