<svg xmlns="http://www.w3.org/2000/svg" viewBox="0 0 800 520">
  <defs>
    <linearGradient id="bg" x1="0" x2="1" y1="0" y2="1"><stop offset="0" stop-color="#ff7a5c"/><stop offset="1" stop-color="#ffe66d"/></linearGradient>
    <filter id="glow" x="-30%" y="-30%" width="160%" height="160%"><feGaussianBlur stdDeviation="8" result="b"/><feMerge><feMergeNode in="b"/><feMergeNode in="SourceGraphic"/></feMerge></filter>
  </defs>
  <rect width="800" height="520" rx="38" fill="#06091d"/>
  <rect x="18" y="18" width="764" height="484" rx="32" fill="url(#bg)" opacity=".82"/>
  <rect x="18" y="18" width="764" height="484" rx="32" fill="rgba(6,9,29,.28)"/>
  <circle cx="615" cy="344" r="5" fill="rgba(255,255,255,.55)"/><circle cx="650" cy="293" r="2" fill="rgba(255,255,255,.55)"/><circle cx="367" cy="72" r="5" fill="rgba(255,255,255,.55)"/><circle cx="432" cy="55" r="3" fill="rgba(255,255,255,.55)"/><circle cx="53" cy="93" r="2" fill="rgba(255,255,255,.55)"/><circle cx="449" cy="220" r="2" fill="rgba(255,255,255,.55)"/><circle cx="444" cy="416" r="2" fill="rgba(255,255,255,.55)"/><circle cx="584" cy="188" r="5" fill="rgba(255,255,255,.55)"/><circle cx="252" cy="120" r="2" fill="rgba(255,255,255,.55)"/><circle cx="486" cy="122" r="4" fill="rgba(255,255,255,.55)"/><circle cx="164" cy="140" r="4" fill="rgba(255,255,255,.55)"/><circle cx="246" cy="69" r="5" fill="rgba(255,255,255,.55)"/><circle cx="738" cy="309" r="5" fill="rgba(255,255,255,.55)"/><circle cx="528" cy="422" r="5" fill="rgba(255,255,255,.55)"/><circle cx="653" cy="374" r="5" fill="rgba(255,255,255,.55)"/><circle cx="129" cy="296" r="2" fill="rgba(255,255,255,.55)"/><circle cx="247" cy="111" r="3" fill="rgba(255,255,255,.55)"/><circle cx="567" cy="286" r="2" fill="rgba(255,255,255,.55)"/><circle cx="462" cy="287" r="5" fill="rgba(255,255,255,.55)"/><circle cx="749" cy="46" r="5" fill="rgba(255,255,255,.55)"/><circle cx="734" cy="85" r="4" fill="rgba(255,255,255,.55)"/><circle cx="121" cy="418" r="3" fill="rgba(255,255,255,.55)"/>
  <ellipse cx="400" cy="450" rx="250" ry="34" fill="rgba(0,0,0,.32)"/>
  
  
  <g filter="url(#glow)">
    <g transform="translate(245 250)">
      <ellipse cx="0" cy="186" rx="88" ry="24" fill="rgba(0,0,0,.25)"/>
      <path d="M-88 200 C-82 94 82 94 88 200 Z" fill="#36e8ff"/>
      <circle cx="0" cy="34" r="70" fill="#8f5d42"/>
      <path d="M-68 24 C-42 -62 55 -58 74 32 C28 10 -20 15 -68 24Z" fill="#d8a348"/>
      <circle cx="-24" cy="34" r="7" fill="#151827"/><circle cx="24" cy="34" r="7" fill="#151827"/>
      <path d="M-22 68 C-5 82 12 82 28 68" stroke="#151827" stroke-width="7" stroke-linecap="round" fill="none"/>
      <path d="M-86 120 C-148 152 -150 232 -96 252" stroke="#8f5d42" stroke-width="28" stroke-linecap="round" fill="none"/>
    </g>
    <g transform="translate(555 250)">
      <ellipse cx="0" cy="186" rx="88" ry="24" fill="rgba(0,0,0,.25)"/>
      <path d="M-88 200 C-82 94 82 94 88 200 Z" fill="#36e8ff"/>
      <circle cx="0" cy="34" r="70" fill="#d8a071"/>
      <path d="M-74 34 C-62 -54 58 -62 76 34 C36 8 -22 8 -74 34Z" fill="#8f4f2a"/>
      <circle cx="-24" cy="34" r="7" fill="#151827"/><circle cx="24" cy="34" r="7" fill="#151827"/>
      <path d="M-28 68 C-9 83 12 83 30 68" stroke="#151827" stroke-width="7" stroke-linecap="round" fill="none"/>
      <path d="M86 120 C148 152 150 232 96 252" stroke="#d8a071" stroke-width="28" stroke-linecap="round" fill="none"/>
    </g>
  </g>
  <rect x="28" y="28" width="744" height="464" rx="28" fill="none" stroke="rgba(255,255,255,.44)" stroke-width="4"/>
</svg>