<svg xmlns="http://www.w3.org/2000/svg" viewBox="0 0 800 520">
  <defs>
    <linearGradient id="bg" x1="0" x2="1" y1="0" y2="1"><stop offset="0" stop-color="#ffb53d"/><stop offset="1" stop-color="#ffe66d"/></linearGradient>
    <filter id="glow" x="-30%" y="-30%" width="160%" height="160%"><feGaussianBlur stdDeviation="8" result="b"/><feMerge><feMergeNode in="b"/><feMergeNode in="SourceGraphic"/></feMerge></filter>
  </defs>
  <rect width="800" height="520" rx="38" fill="#06091d"/>
  <rect x="18" y="18" width="764" height="484" rx="32" fill="url(#bg)" opacity=".82"/>
  <rect x="18" y="18" width="764" height="484" rx="32" fill="rgba(6,9,29,.28)"/>
  <circle cx="176" cy="405" r="5" fill="rgba(255,255,255,.55)"/><circle cx="576" cy="121" r="4" fill="rgba(255,255,255,.55)"/><circle cx="277" cy="331" r="5" fill="rgba(255,255,255,.55)"/><circle cx="205" cy="81" r="5" fill="rgba(255,255,255,.55)"/><circle cx="382" cy="243" r="3" fill="rgba(255,255,255,.55)"/><circle cx="712" cy="422" r="2" fill="rgba(255,255,255,.55)"/><circle cx="534" cy="419" r="3" fill="rgba(255,255,255,.55)"/><circle cx="431" cy="392" r="2" fill="rgba(255,255,255,.55)"/><circle cx="540" cy="405" r="3" fill="rgba(255,255,255,.55)"/><circle cx="449" cy="156" r="3" fill="rgba(255,255,255,.55)"/><circle cx="160" cy="357" r="4" fill="rgba(255,255,255,.55)"/><circle cx="707" cy="413" r="5" fill="rgba(255,255,255,.55)"/><circle cx="466" cy="39" r="3" fill="rgba(255,255,255,.55)"/><circle cx="590" cy="416" r="4" fill="rgba(255,255,255,.55)"/><circle cx="136" cy="334" r="4" fill="rgba(255,255,255,.55)"/><circle cx="206" cy="226" r="2" fill="rgba(255,255,255,.55)"/><circle cx="747" cy="98" r="2" fill="rgba(255,255,255,.55)"/><circle cx="327" cy="270" r="3" fill="rgba(255,255,255,.55)"/><circle cx="85" cy="342" r="2" fill="rgba(255,255,255,.55)"/><circle cx="540" cy="227" r="2" fill="rgba(255,255,255,.55)"/><circle cx="746" cy="294" r="5" fill="rgba(255,255,255,.55)"/><circle cx="603" cy="83" r="3" fill="rgba(255,255,255,.55)"/>
  <ellipse cx="400" cy="450" rx="250" ry="34" fill="rgba(0,0,0,.32)"/>
  <path d="M455 220 C455 190 492 184 512 212 C532 184 569 190 569 220 C569 258 512 292 512 292 C512 292 455 258 455 220Z" fill="rgba(255,94,219,.55)"/>
  <path d="M372 354 C430 390 494 390 552 354" fill="none" stroke="rgba(255,255,255,.55)" stroke-width="16" stroke-linecap="round"/>
  <g filter="url(#glow)">
    <g transform="translate(245 250)">
      <ellipse cx="0" cy="186" rx="88" ry="24" fill="rgba(0,0,0,.25)"/>
      <path d="M-88 200 C-82 94 82 94 88 200 Z" fill="#ff7a5c"/>
      <circle cx="0" cy="34" r="70" fill="#8f5d42"/>
      <path d="M-68 24 C-42 -62 55 -58 74 32 C28 10 -20 15 -68 24Z" fill="#8f4f2a"/>
      <circle cx="-24" cy="34" r="7" fill="#151827"/><circle cx="24" cy="34" r="7" fill="#151827"/>
      <path d="M-22 68 C-5 82 12 82 28 68" stroke="#151827" stroke-width="7" stroke-linecap="round" fill="none"/>
      <path d="M-86 120 C-148 152 -150 232 -96 252" stroke="#8f5d42" stroke-width="28" stroke-linecap="round" fill="none"/>
    </g>
    <g transform="translate(555 250)">
      <ellipse cx="0" cy="186" rx="88" ry="24" fill="rgba(0,0,0,.25)"/>
      <path d="M-88 200 C-82 94 82 94 88 200 Z" fill="#ff7a5c"/>
      <circle cx="0" cy="34" r="70" fill="#ffd5b8"/>
      <path d="M-74 34 C-62 -54 58 -62 76 34 C36 8 -22 8 -74 34Z" fill="#5a3217"/>
      <circle cx="-24" cy="34" r="7" fill="#151827"/><circle cx="24" cy="34" r="7" fill="#151827"/>
      <path d="M-28 68 C-9 83 12 83 30 68" stroke="#151827" stroke-width="7" stroke-linecap="round" fill="none"/>
      <path d="M86 120 C148 152 150 232 96 252" stroke="#ffd5b8" stroke-width="28" stroke-linecap="round" fill="none"/>
    </g>
  </g>
  <rect x="28" y="28" width="744" height="464" rx="28" fill="none" stroke="rgba(255,255,255,.44)" stroke-width="4"/>
</svg>