<svg xmlns="http://www.w3.org/2000/svg" viewBox="0 0 800 520">
  <defs>
    <linearGradient id="bg" x1="0" x2="1" y1="0" y2="1"><stop offset="0" stop-color="#ffb53d"/><stop offset="1" stop-color="#ffb53d"/></linearGradient>
    <filter id="glow" x="-30%" y="-30%" width="160%" height="160%"><feGaussianBlur stdDeviation="8" result="b"/><feMerge><feMergeNode in="b"/><feMergeNode in="SourceGraphic"/></feMerge></filter>
  </defs>
  <rect width="800" height="520" rx="38" fill="#06091d"/>
  <rect x="18" y="18" width="764" height="484" rx="32" fill="url(#bg)" opacity=".82"/>
  <rect x="18" y="18" width="764" height="484" rx="32" fill="rgba(6,9,29,.28)"/>
  <circle cx="232" cy="401" r="5" fill="rgba(255,255,255,.55)"/><circle cx="433" cy="410" r="3" fill="rgba(255,255,255,.55)"/><circle cx="541" cy="331" r="5" fill="rgba(255,255,255,.55)"/><circle cx="356" cy="352" r="4" fill="rgba(255,255,255,.55)"/><circle cx="201" cy="286" r="5" fill="rgba(255,255,255,.55)"/><circle cx="634" cy="295" r="4" fill="rgba(255,255,255,.55)"/><circle cx="185" cy="116" r="2" fill="rgba(255,255,255,.55)"/><circle cx="743" cy="110" r="3" fill="rgba(255,255,255,.55)"/><circle cx="186" cy="337" r="3" fill="rgba(255,255,255,.55)"/><circle cx="734" cy="70" r="3" fill="rgba(255,255,255,.55)"/><circle cx="431" cy="366" r="3" fill="rgba(255,255,255,.55)"/><circle cx="388" cy="291" r="5" fill="rgba(255,255,255,.55)"/><circle cx="98" cy="409" r="5" fill="rgba(255,255,255,.55)"/><circle cx="247" cy="308" r="4" fill="rgba(255,255,255,.55)"/><circle cx="307" cy="200" r="3" fill="rgba(255,255,255,.55)"/><circle cx="647" cy="268" r="3" fill="rgba(255,255,255,.55)"/><circle cx="136" cy="148" r="5" fill="rgba(255,255,255,.55)"/><circle cx="660" cy="200" r="3" fill="rgba(255,255,255,.55)"/><circle cx="694" cy="342" r="4" fill="rgba(255,255,255,.55)"/><circle cx="504" cy="97" r="2" fill="rgba(255,255,255,.55)"/><circle cx="709" cy="401" r="5" fill="rgba(255,255,255,.55)"/><circle cx="416" cy="252" r="5" fill="rgba(255,255,255,.55)"/>
  <ellipse cx="400" cy="450" rx="250" ry="34" fill="rgba(0,0,0,.32)"/>
  
  <path d="M372 354 C430 390 494 390 552 354" fill="none" stroke="rgba(255,255,255,.55)" stroke-width="16" stroke-linecap="round"/>
  <g filter="url(#glow)">
    <g transform="translate(245 250)">
      <ellipse cx="0" cy="186" rx="88" ry="24" fill="rgba(0,0,0,.25)"/>
      <path d="M-88 200 C-82 94 82 94 88 200 Z" fill="#ffe66d"/>
      <circle cx="0" cy="34" r="70" fill="#ffd5b8"/>
      <path d="M-68 24 C-42 -62 55 -58 74 32 C28 10 -20 15 -68 24Z" fill="#d8a348"/>
      <circle cx="-24" cy="34" r="7" fill="#151827"/><circle cx="24" cy="34" r="7" fill="#151827"/>
      <path d="M-22 68 C-5 82 12 82 28 68" stroke="#151827" stroke-width="7" stroke-linecap="round" fill="none"/>
      <path d="M-86 120 C-148 152 -150 232 -96 252" stroke="#ffd5b8" stroke-width="28" stroke-linecap="round" fill="none"/>
    </g>
    <g transform="translate(555 250)">
      <ellipse cx="0" cy="186" rx="88" ry="24" fill="rgba(0,0,0,.25)"/>
      <path d="M-88 200 C-82 94 82 94 88 200 Z" fill="#5cffb1"/>
      <circle cx="0" cy="34" r="70" fill="#e6b18d"/>
      <path d="M-74 34 C-62 -54 58 -62 76 34 C36 8 -22 8 -74 34Z" fill="#5a3217"/>
      <circle cx="-24" cy="34" r="7" fill="#151827"/><circle cx="24" cy="34" r="7" fill="#151827"/>
      <path d="M-28 68 C-9 83 12 83 30 68" stroke="#151827" stroke-width="7" stroke-linecap="round" fill="none"/>
      <path d="M86 120 C148 152 150 232 96 252" stroke="#e6b18d" stroke-width="28" stroke-linecap="round" fill="none"/>
    </g>
  </g>
  <rect x="28" y="28" width="744" height="464" rx="28" fill="none" stroke="rgba(255,255,255,.44)" stroke-width="4"/>
</svg>